<?xml version="1.0" encoding="UTF-8" standalone="no"?>
<!-- Creator: CorelDRAW X7 -->

<svg
   xmlns:dc="http://purl.org/dc/elements/1.1/"
   xmlns:cc="http://creativecommons.org/ns#"
   xmlns:rdf="http://www.w3.org/1999/02/22-rdf-syntax-ns#"
   xmlns:svg="http://www.w3.org/2000/svg"
   xmlns="http://www.w3.org/2000/svg"
   xmlns:sodipodi="http://sodipodi.sourceforge.net/DTD/sodipodi-0.dtd"
   xmlns:inkscape="http://www.inkscape.org/namespaces/inkscape"
   xml:space="preserve"
   width="106.23398mm"
   height="40.169167mm"
   version="1.1"
   style="clip-rule:evenodd;fill-rule:evenodd;image-rendering:optimizeQuality;shape-rendering:geometricPrecision;text-rendering:geometricPrecision"
   viewBox="0 0 4918.1808 1859.794"
   id="svg29"
   sodipodi:docname="logo.svg"
   inkscape:version="0.92.3 (2405546, 2018-03-11)"><metadata
   id="metadata33"><rdf:RDF><cc:Work
       rdf:about=""><dc:format>image/svg+xml</dc:format><dc:type
         rdf:resource="http://purl.org/dc/dcmitype/StillImage" /><dc:title></dc:title></cc:Work></rdf:RDF></metadata><sodipodi:namedview
   pagecolor="#ffffff"
   bordercolor="#666666"
   borderopacity="1"
   objecttolerance="10"
   gridtolerance="10"
   guidetolerance="10"
   inkscape:pageopacity="0"
   inkscape:pageshadow="2"
   inkscape:window-width="1752"
   inkscape:window-height="857"
   id="namedview31"
   showgrid="false"
   fit-margin-top="0"
   fit-margin-left="0"
   fit-margin-right="0"
   fit-margin-bottom="0"
   inkscape:zoom="1.5647993"
   inkscape:cx="206.43952"
   inkscape:cy="66.978926"
   inkscape:window-x="2325"
   inkscape:window-y="468"
   inkscape:window-maximized="0"
   inkscape:current-layer="svg29" />
 <defs
   id="defs4">
  <style
   type="text/css"
   id="style2">
   <![CDATA[
    .fil2 {fill:#FEFEFE}
    .fil1 {fill:#FEFEFE}
    .fil0 {fill:#39356C}
    .fil3 {fill:#5EE045}
    .fil6 {fill:#A9ABAE;fill-rule:nonzero}
    .fil4 {fill:#39356C;fill-rule:nonzero}
    .fil5 {fill:#5EE045;fill-rule:nonzero}
   ]]>
  </style>
 </defs>
 <text
   xml:space="preserve"
   style="font-style:normal;font-weight:normal;font-size:489.99819946px;line-height:1.25;font-family:sans-serif;letter-spacing:0px;word-spacing:0px;fill:#000000;fill-opacity:1;stroke:none;stroke-width:12.24995518"
   x="-0.15155834"
   y="609.77557"
   id="text845"><tspan
     sodipodi:role="line"
     id="tspan843"
     x="-0.15155834"
     y="609.77557"
     style="font-style:normal;font-variant:normal;font-weight:normal;font-stretch:normal;font-size:783.99713135px;font-family:'ProFontIIx Nerd Font';-inkscape-font-specification:'ProFontIIx Nerd Font';stroke-width:12.24995518">MACR0</tspan></text>
<g
   id="Capa_x0020_1"
   transform="translate(667.38,300.6637)">
  <metadata
   id="CorelCorpID_0Corel-Layer" />
  <path
   class="fil0"
   d="m 127,312 h 3997 c 70,0 127,57 127,127 v 707 c 0,70 -57,127 -127,127 H 127 C 57,1273 0,1216 0,1146 V 439 C 0,369 57,312 127,312 Z"
   id="path7"
   inkscape:connector-curvature="0"
   style="fill:#39356c" />
  <path
   class="fil1"
   d="m 127,372 h 3997 c 37,0 67,30 67,67 v 707 c 0,37 -30,67 -67,67 H 127 c -37,0 -67,-30 -67,-67 V 439 c 0,-37 30,-67 67,-67 z"
   id="path9"
   inkscape:connector-curvature="0"
   style="fill:#fefefe" />
  <path
   class="fil2"
   d="m 2786,286 c 84,-6 169,2 252,15 69,11 56,112 -23,97 -105,-21 -214,-23 -317,9 -101,32 -141,118 -136,219 4,89 -14,170 -59,248 -35,60 -83,111 -133,158 -135,125 -146,290 -117,461 12,74 -79,90 -102,27 -153,-420 -112,-853 155,-1219 45,-62 106,-108 183,-121 110,-19 216,34 297,106 z"
   id="path11"
   inkscape:connector-curvature="0"
   style="fill:#fefefe" />
  <path
   class="fil0"
   d="m 2774,321 c 86,-8 173,0 259,14 24,4 21,35 -11,29 -109,-21 -225,-24 -335,11 -114,36 -165,133 -159,252 8,169 -74,280 -182,380 -142,132 -159,305 -127,492 6,33 -27,33 -36,9 -141,-388 -122,-813 150,-1187 115,-157 294,-137 441,0 z"
   id="path13"
   inkscape:connector-curvature="0"
   style="fill:#39356c" />
  <path
   class="fil2"
   d="m 2554,839 c -53,241 -339,322 -546,372 -65,15 -97,-79 -30,-100 80,-26 193,-55 253,-118 20,-21 34,-46 42,-74 23,-80 -21,-140 -84,-183 -247,-169 -338,-400 -290,-691 10,-56 86,-62 106,-5 46,135 161,199 283,254 237,106 322,294 266,545 z"
   id="path15"
   inkscape:connector-curvature="0"
   style="fill:#fefefe" />
  <path
   class="fil3"
   d="m 2523,832 c -45,203 -271,286 -523,347 -25,6 -39,-29 -12,-37 138,-45 278,-80 317,-215 25,-90 -19,-164 -98,-218 -254,-173 -319,-403 -276,-658 4,-23 34,-27 43,0 50,144 170,214 301,273 218,97 301,266 248,508 z"
   id="path17"
   inkscape:connector-curvature="0"
   style="fill:#5ee045" />
  <path
   class="fil4"
   d="M 196,1051 H 503 C 696,1051 796,963 796,802 796,635 689,543 486,543 H 196 Z M 452,655 c 113,0 168,47 168,144 0,101 -53,141 -168,141 H 369 V 655 Z m 610,404 c 215,0 326,-89 326,-259 0,-172 -108,-266 -313,-266 -208,0 -320,94 -320,261 0,172 105,264 307,264 z M 931,801 c 0,-106 52,-164 138,-164 93,0 143,58 143,168 0,100 -48,152 -142,152 -92,0 -139,-52 -139,-156 z m 827,-87 h 179 c -8,-118 -101,-179 -276,-179 -203,0 -314,100 -314,272 0,157 108,252 299,252 193,0 291,-60 304,-194 h -180 c -9,59 -48,90 -111,90 -87,0 -136,-55 -136,-155 0,-103 51,-160 138,-160 55,0 87,24 97,74 z"
   id="path19"
   inkscape:connector-curvature="0"
   style="fill:#39356c;fill-rule:nonzero" />
  <path
   class="fil5"
   d="m 2981,1010 c 0,15 -1,26 -3,34 -2,9 -4,14 -8,17 -3,4 -7,7 -13,9 -6,3 -13,5 -22,7 -7,2 -16,3 -26,4 -9,1 -19,2 -28,2 -26,0 -49,-4 -68,-10 -18,-7 -34,-17 -47,-30 -12,-14 -21,-31 -27,-52 -6,-20 -9,-45 -9,-73 V 682 h -56 c -6,0 -11,-4 -15,-12 -3,-8 -5,-22 -5,-41 0,-10 0,-18 1,-25 1,-7 3,-12 4,-16 2,-4 4,-7 7,-9 2,-2 6,-3 9,-3 h 55 V 473 c 0,-3 1,-6 3,-9 2,-3 6,-5 10,-7 5,-2 12,-3 21,-4 8,-1 19,-1 31,-1 13,0 23,0 32,1 8,1 15,2 20,4 5,2 8,4 10,7 2,3 3,6 3,9 v 103 h 100 c 4,0 7,1 9,3 3,2 5,5 7,9 1,4 3,9 4,16 0,7 1,15 1,25 0,19 -2,33 -5,41 -4,8 -9,12 -15,12 h -101 v 217 c 0,25 4,44 12,56 8,13 22,19 42,19 7,0 13,-1 19,-2 5,-1 10,-2 14,-4 5,-1 8,-3 11,-4 3,-1 6,-2 8,-2 2,0 4,1 6,2 2,1 4,3 5,7 1,4 2,9 3,15 0,6 1,14 1,24 z m 427,-199 c 0,16 -4,28 -11,35 -7,8 -17,12 -29,12 h -281 c 0,19 3,37 8,53 4,16 11,29 22,40 10,11 23,20 39,26 16,6 35,9 57,9 23,0 43,-2 60,-5 17,-4 32,-7 45,-11 12,-4 23,-8 31,-11 8,-4 15,-5 20,-5 3,0 6,0 8,2 2,1 4,3 5,6 1,3 2,8 3,13 0,6 1,13 1,21 0,8 -1,15 -1,20 0,5 -1,10 -2,13 0,4 -1,7 -3,10 -1,3 -3,5 -5,8 -2,2 -8,5 -18,9 -10,5 -23,9 -39,13 -15,4 -33,7 -53,10 -19,3 -41,5 -64,5 -41,0 -76,-5 -107,-16 -31,-10 -57,-26 -77,-46 -21,-21 -36,-48 -47,-80 -10,-32 -15,-70 -15,-113 0,-40 6,-77 16,-110 11,-33 26,-61 47,-84 20,-23 45,-40 74,-52 29,-12 62,-18 98,-18 39,0 72,5 99,17 28,11 50,27 68,47 17,20 30,44 38,72 9,27 13,57 13,90 z m -126,-37 c 1,-36 -6,-65 -22,-86 -16,-21 -40,-31 -73,-31 -16,0 -31,3 -43,9 -12,6 -22,15 -30,25 -9,11 -15,23 -19,37 -4,15 -7,30 -8,46 z m 479,150 c 0,26 -5,50 -15,70 -10,20 -24,36 -42,50 -18,13 -39,23 -63,30 -25,7 -51,10 -80,10 -17,0 -33,-1 -49,-4 -16,-3 -30,-6 -42,-10 -13,-4 -23,-8 -31,-12 -9,-4 -15,-8 -18,-12 -4,-4 -7,-9 -9,-17 -2,-8 -3,-19 -3,-34 0,-10 0,-18 1,-24 1,-6 2,-11 3,-15 1,-3 3,-6 5,-7 2,-1 5,-2 8,-2 4,0 9,3 17,7 7,4 16,9 27,14 11,6 24,11 39,15 14,4 31,7 50,7 11,0 22,-1 31,-4 9,-2 17,-6 24,-10 6,-5 11,-10 15,-17 3,-7 5,-15 5,-24 0,-11 -3,-19 -10,-27 -6,-7 -15,-14 -25,-19 -11,-6 -22,-11 -36,-16 -13,-4 -27,-10 -41,-16 -14,-6 -27,-12 -40,-20 -14,-7 -26,-17 -36,-28 -11,-11 -19,-24 -26,-39 -6,-16 -9,-34 -9,-56 0,-22 4,-42 13,-61 9,-18 21,-34 37,-47 16,-13 36,-23 59,-30 24,-8 50,-11 79,-11 15,0 29,1 42,3 14,2 26,5 37,8 11,3 21,6 28,10 8,3 13,6 17,9 3,2 5,5 7,8 1,2 2,5 3,9 0,3 1,8 2,13 0,6 0,12 0,20 0,9 0,17 0,23 -1,6 -2,10 -3,14 -1,3 -3,6 -5,7 -2,1 -4,2 -7,2 -3,0 -8,-2 -15,-6 -6,-3 -14,-7 -24,-11 -10,-4 -22,-8 -35,-12 -13,-3 -27,-5 -44,-5 -12,0 -22,1 -31,3 -8,3 -15,6 -21,11 -5,4 -10,9 -12,15 -3,6 -4,13 -4,20 0,10 3,19 9,27 7,7 16,13 26,19 11,5 23,10 37,15 13,5 27,10 41,16 14,5 28,12 42,20 13,7 25,17 36,28 11,11 19,24 26,39 6,15 10,33 10,54 z m 279,86 c 0,15 -1,26 -3,34 -2,9 -4,14 -7,17 -3,4 -8,7 -14,9 -6,3 -13,5 -21,7 -8,2 -17,3 -27,4 -9,1 -19,2 -28,2 -26,0 -48,-4 -67,-10 -19,-7 -35,-17 -47,-30 -13,-14 -22,-31 -28,-52 -6,-20 -9,-45 -9,-73 V 682 h -55 c -7,0 -12,-4 -15,-12 -4,-8 -6,-22 -6,-41 0,-10 1,-18 2,-25 0,-7 2,-12 4,-16 1,-4 3,-7 6,-9 3,-2 6,-3 9,-3 h 55 V 473 c 0,-3 1,-6 3,-9 2,-3 6,-5 11,-7 5,-2 11,-3 20,-4 8,-1 19,-1 31,-1 13,0 24,0 32,1 8,1 15,2 20,4 5,2 8,4 10,7 2,3 3,6 3,9 v 103 h 100 c 4,0 7,1 9,3 3,2 5,5 7,9 2,4 3,9 4,16 1,7 1,15 1,25 0,19 -2,33 -5,41 -4,8 -9,12 -15,12 h -101 v 217 c 0,25 4,44 12,56 8,13 22,19 43,19 6,0 13,-1 18,-2 6,-1 10,-2 15,-4 4,-1 8,-3 11,-4 2,-1 5,-2 8,-2 2,0 4,1 6,2 1,1 3,3 4,7 1,4 2,9 3,15 1,6 1,14 1,24 z"
   id="path21"
   inkscape:connector-curvature="0"
   style="fill:#5ee045;fill-rule:nonzero" />
  <g
   id="_2831609520800">
   <path
   class="fil6"
   d="m 792,1468 c 0,2 0,3 0,4 0,1 0,2 -1,3 0,1 0,2 0,2 -1,1 -1,2 -2,2 -1,1 -2,2 -4,3 -2,2 -5,3 -8,4 -3,1 -7,2 -10,2 -4,1 -9,2 -13,2 -9,0 -17,-2 -24,-5 -7,-2 -13,-6 -18,-12 -5,-5 -9,-12 -12,-20 -3,-8 -4,-18 -4,-29 0,-11 2,-20 5,-29 3,-8 7,-16 12,-21 5,-6 11,-11 19,-14 7,-3 15,-4 24,-4 4,0 7,0 11,1 3,0 6,1 9,2 3,1 5,2 8,3 2,2 3,3 4,4 1,1 2,1 2,2 0,1 1,1 1,2 0,1 0,2 0,4 0,1 1,2 1,4 0,2 -1,4 -1,5 0,2 0,3 0,4 -1,1 -1,1 -2,2 0,0 -1,0 -1,0 -1,0 -2,0 -4,-1 -2,-2 -3,-3 -6,-4 -2,-2 -5,-3 -9,-4 -3,-1 -7,-2 -12,-2 -5,0 -9,1 -13,3 -4,2 -8,5 -11,9 -3,4 -5,9 -6,14 -2,6 -2,12 -2,19 0,8 0,14 2,20 2,5 4,10 7,14 3,3 6,6 10,8 4,1 9,2 14,2 5,0 9,0 12,-1 4,-2 6,-3 9,-4 2,-1 4,-3 6,-4 1,-1 3,-1 4,-1 0,0 1,0 1,0 1,0 1,1 1,2 0,1 1,2 1,3 0,2 0,4 0,6 z m 151,-38 c 0,2 0,3 0,5 -1,1 -1,2 -1,3 -1,1 -1,1 -2,1 0,1 -1,1 -1,1 h -32 v 34 c 0,1 0,1 0,2 0,0 -1,1 -2,1 -1,0 -2,1 -3,1 -1,0 -3,0 -5,0 -2,0 -4,0 -5,0 -1,0 -2,-1 -3,-1 -1,0 -2,-1 -2,-1 0,-1 -1,-1 -1,-2 v -34 h -31 c 0,0 -1,0 -1,-1 -1,0 -1,0 -2,-1 0,-1 0,-2 0,-3 -1,-2 -1,-3 -1,-5 0,-2 0,-3 0,-5 1,-1 1,-2 1,-3 1,-1 1,-1 2,-1 0,-1 1,-1 1,-1 h 31 v -34 c 0,-1 1,-1 1,-2 0,0 1,-1 2,-1 1,-1 2,-1 3,-1 1,0 3,0 5,0 2,0 4,0 5,0 1,0 2,0 3,1 1,0 2,1 2,1 0,1 0,1 0,2 v 34 h 32 c 0,0 1,0 1,1 1,0 1,0 2,1 0,1 0,2 1,3 0,2 0,3 0,5 z m 154,0 c 0,2 -1,3 -1,5 0,1 0,2 -1,3 0,1 0,1 -1,1 -1,1 -1,1 -2,1 h -31 v 34 c 0,1 0,1 0,2 -1,0 -1,1 -2,1 -1,0 -2,1 -3,1 -2,0 -3,0 -5,0 -2,0 -4,0 -5,0 -2,0 -3,-1 -4,-1 0,0 -1,-1 -1,-1 -1,-1 -1,-1 -1,-2 v -34 h -31 c 0,0 -1,0 -1,-1 -1,0 -1,0 -2,-1 0,-1 0,-2 -1,-3 0,-2 0,-3 0,-5 0,-2 0,-3 0,-5 0,-1 1,-2 1,-3 0,-1 1,-1 1,-1 1,-1 1,-1 2,-1 h 31 v -34 c 0,-1 0,-1 1,-2 0,0 1,-1 1,-1 1,-1 2,-1 4,-1 1,0 3,0 5,0 2,0 3,0 5,0 1,0 2,0 3,1 1,0 1,1 2,1 0,1 0,1 0,2 v 34 h 32 c 0,0 1,0 1,1 1,0 1,0 1,1 1,1 1,2 1,3 0,2 1,3 1,5 z m 163,45 c 0,3 0,6 -1,7 0,2 0,3 -1,3 -1,1 -1,2 -3,2 -1,1 -2,1 -4,1 -1,1 -3,1 -5,1 -2,0 -4,1 -5,1 -5,0 -10,-1 -13,-2 -4,-2 -7,-4 -10,-6 -2,-3 -4,-6 -5,-10 -1,-4 -2,-9 -2,-14 v -46 h -10 c -2,0 -3,-1 -3,-3 -1,-1 -1,-4 -1,-7 0,-2 0,-4 0,-5 0,-2 0,-3 1,-4 0,0 0,-1 1,-1 0,0 1,-1 2,-1 h 10 v -20 c 0,0 1,-1 1,-1 0,-1 1,-1 2,-2 1,0 2,0 4,-1 2,0 4,0 6,0 2,0 5,0 6,0 2,1 3,1 4,1 1,1 2,1 2,2 0,0 1,1 1,1 v 20 h 19 c 1,0 1,1 2,1 0,0 1,1 1,1 0,1 1,2 1,4 0,1 0,3 0,5 0,3 0,6 -1,7 -1,2 -2,3 -3,3 h -19 v 42 c 0,5 0,8 2,11 1,2 4,3 8,3 1,0 3,0 4,0 1,0 2,0 3,-1 0,0 1,0 2,-1 0,0 1,0 1,0 1,0 1,0 1,0 1,1 1,1 1,2 0,1 1,2 1,3 0,1 0,2 0,4 z m 147,-38 c 0,3 0,5 -2,7 -1,1 -3,2 -5,2 h -55 c 0,4 1,7 1,10 1,3 3,6 5,8 2,2 4,4 7,5 3,1 7,2 12,2 4,0 8,-1 11,-1 3,-1 6,-2 9,-2 2,-1 4,-2 6,-2 1,-1 3,-1 4,-1 0,0 1,0 1,0 1,0 1,1 1,1 0,1 1,2 1,3 0,1 0,2 0,4 0,1 0,3 0,4 0,1 0,1 0,2 -1,1 -1,2 -1,2 0,1 -1,1 -1,2 -1,0 -2,1 -4,1 -2,1 -4,2 -7,3 -3,1 -7,1 -10,2 -4,0 -8,1 -13,1 -8,0 -15,-1 -21,-3 -6,-2 -11,-5 -15,-9 -4,-4 -7,-10 -9,-16 -2,-6 -3,-13 -3,-22 0,-8 2,-15 4,-21 2,-6 5,-12 9,-16 4,-5 8,-8 14,-10 6,-3 12,-4 19,-4 8,0 14,1 19,3 6,3 10,6 13,10 4,3 6,8 8,13 1,6 2,12 2,18 z m -24,-7 c 0,-7 -1,-13 -4,-17 -3,-4 -8,-6 -15,-6 -3,0 -6,1 -8,2 -2,1 -4,3 -6,5 -1,2 -3,4 -3,7 -1,3 -2,6 -2,9 z m 157,29 c 0,5 -1,9 -3,13 -2,4 -4,7 -8,10 -3,3 -7,5 -12,6 -5,1 -10,2 -16,2 -3,0 -6,0 -9,-1 -3,0 -6,-1 -8,-2 -3,-1 -5,-1 -6,-2 -2,-1 -3,-2 -4,-3 -1,0 -1,-1 -2,-3 0,-1 0,-4 0,-7 0,-1 0,-3 0,-4 0,-1 0,-2 1,-3 0,-1 0,-1 1,-1 0,-1 1,-1 1,-1 1,0 2,1 3,2 2,0 4,1 6,2 2,1 4,2 7,3 3,1 6,2 10,2 2,0 4,-1 6,-1 2,-1 3,-1 5,-2 1,-1 2,-2 3,-4 0,-1 1,-2 1,-4 0,-2 -1,-4 -2,-5 -2,-2 -3,-3 -5,-4 -2,-1 -5,-2 -7,-3 -3,-1 -5,-2 -8,-3 -3,-1 -5,-3 -8,-4 -3,-2 -5,-3 -7,-5 -2,-3 -4,-5 -5,-8 -1,-3 -2,-7 -2,-11 0,-4 1,-8 3,-12 1,-3 4,-6 7,-9 3,-2 7,-4 12,-6 4,-1 9,-2 15,-2 3,0 5,0 8,1 3,0 5,1 7,1 2,1 4,1 6,2 1,1 2,1 3,2 0,0 1,1 1,1 0,1 1,1 1,2 0,1 0,2 0,3 0,1 0,2 0,4 0,1 0,3 0,4 0,1 0,2 0,3 -1,0 -1,1 -1,1 -1,0 -1,0 -2,0 0,0 -1,0 -3,-1 -1,0 -3,-1 -4,-2 -2,-1 -5,-1 -7,-2 -3,-1 -5,-1 -9,-1 -2,0 -4,0 -6,1 -1,0 -3,1 -4,2 -1,0 -2,2 -2,3 -1,1 -1,2 -1,3 0,2 1,4 2,6 1,1 3,2 5,3 2,1 4,2 7,3 3,1 5,2 8,3 3,1 5,3 8,4 3,2 5,4 7,6 2,2 4,4 5,7 1,3 2,7 2,11 z m 119,16 c 0,3 0,6 -1,7 0,2 -1,3 -1,3 -1,1 -2,2 -3,2 -1,1 -3,1 -4,1 -2,1 -3,1 -5,1 -2,0 -4,1 -6,1 -5,0 -9,-1 -13,-2 -3,-2 -6,-4 -9,-6 -2,-3 -4,-6 -5,-10 -1,-4 -2,-9 -2,-14 v -46 h -11 c -1,0 -2,-1 -3,-3 0,-1 -1,-4 -1,-7 0,-2 0,-4 1,-5 0,-2 0,-3 0,-4 1,0 1,-1 2,-1 0,0 1,-1 1,-1 h 11 v -20 c 0,0 0,-1 1,-1 0,-1 1,-1 2,-2 1,0 2,0 4,-1 1,0 3,0 6,0 2,0 4,0 6,0 1,1 3,1 4,1 1,1 1,1 2,2 0,0 0,1 0,1 v 20 h 20 c 0,0 1,1 1,1 1,0 1,1 2,1 0,1 0,2 0,4 1,1 1,3 1,5 0,3 -1,6 -1,7 -1,2 -2,3 -3,3 h -20 v 42 c 0,5 1,8 3,11 1,2 4,3 8,3 1,0 2,0 3,0 1,0 2,0 3,-1 1,0 2,0 2,-1 1,0 1,0 2,0 0,0 1,0 1,0 0,1 1,1 1,2 0,1 0,2 0,3 1,1 1,2 1,4 z m 89,9 c 0,1 0,1 0,2 -1,0 -1,1 -2,1 -1,0 -2,1 -4,1 -2,0 -4,0 -6,0 -3,0 -5,0 -6,0 -2,0 -3,-1 -4,-1 -1,0 -2,-1 -2,-1 -1,-1 -1,-1 -1,-2 v -89 c 0,-1 0,-1 1,-2 0,0 1,-1 2,-1 1,0 2,-1 4,-1 1,0 3,0 6,0 2,0 4,0 6,0 2,0 3,1 4,1 1,0 1,1 2,1 0,1 0,1 0,2 z m 2,-120 c 0,5 -1,9 -3,11 -2,2 -6,3 -11,3 -6,0 -10,-1 -12,-3 -2,-2 -3,-5 -3,-10 0,-5 1,-9 3,-11 2,-2 6,-3 12,-3 6,0 9,1 11,3 2,2 3,5 3,10 z m 158,120 c 0,1 0,1 -1,2 0,0 -1,1 -2,1 -1,0 -2,1 -3,1 -2,0 -4,0 -7,0 -2,0 -4,0 -6,0 -1,0 -3,-1 -4,-1 -1,0 -1,-1 -2,-1 0,-1 0,-1 0,-2 v -51 c 0,-4 -1,-8 -1,-10 -1,-3 -2,-5 -3,-6 -1,-2 -3,-4 -5,-5 -1,0 -4,-1 -6,-1 -3,0 -7,1 -10,4 -3,2 -7,5 -10,10 v 59 c 0,1 0,1 -1,2 0,0 -1,1 -2,1 -1,0 -2,1 -4,1 -1,0 -3,0 -6,0 -2,0 -4,0 -6,0 -1,0 -3,-1 -4,-1 -1,0 -1,-1 -2,-1 0,-1 0,-1 0,-2 v -89 c 0,-1 0,-2 0,-2 1,-1 1,-1 2,-1 1,-1 2,-1 3,-1 2,0 3,0 6,0 2,0 3,0 5,0 1,0 2,0 3,1 1,0 1,0 2,1 0,0 0,1 0,2 v 10 c 5,-5 10,-9 15,-12 5,-3 11,-4 16,-4 6,0 11,1 16,3 4,2 7,5 10,8 2,4 4,8 5,12 1,5 2,10 2,17 z m 154,-83 c 0,3 0,6 -1,7 -1,2 -1,2 -3,2 h -10 c 1,2 2,4 3,6 1,2 1,4 1,6 0,5 -1,10 -3,14 -1,4 -4,7 -7,10 -3,3 -7,5 -12,7 -4,1 -9,2 -15,2 -3,0 -6,-1 -8,-1 -3,-1 -5,-2 -6,-3 -1,1 -2,2 -2,3 -1,2 -1,3 -1,4 0,2 1,4 2,5 2,1 4,2 7,2 l 22,1 c 5,0 10,1 14,2 4,1 7,3 10,5 2,3 5,5 6,8 1,4 2,7 2,11 0,4 -1,9 -3,13 -2,3 -5,7 -9,10 -3,3 -8,5 -14,7 -6,1 -13,2 -21,2 -7,0 -14,-1 -19,-2 -5,-1 -10,-3 -13,-5 -4,-2 -6,-4 -8,-7 -1,-3 -2,-7 -2,-10 0,-2 0,-5 1,-7 0,-2 1,-3 2,-5 1,-2 3,-4 4,-6 2,-1 4,-3 6,-4 -3,-2 -5,-4 -7,-7 -1,-2 -2,-5 -2,-8 0,-4 1,-8 2,-11 2,-3 5,-6 8,-9 -3,-2 -5,-5 -6,-8 -2,-3 -2,-8 -2,-12 0,-6 1,-10 3,-14 1,-4 4,-8 7,-11 3,-3 7,-5 12,-6 4,-2 9,-3 15,-3 3,0 5,1 8,1 3,0 5,1 7,1 h 28 c 2,0 3,1 3,3 1,1 1,3 1,7 z m -32,21 c 0,-5 -1,-8 -4,-11 -3,-3 -6,-4 -11,-4 -3,0 -5,0 -7,1 -2,1 -3,2 -5,4 -1,1 -2,3 -2,5 -1,2 -1,3 -1,6 0,4 1,8 4,10 2,3 6,4 11,4 2,0 5,0 7,-1 1,-1 3,-2 4,-3 1,-2 2,-3 3,-5 1,-2 1,-4 1,-6 z m 6,71 c 0,-3 -1,-5 -4,-6 -2,-2 -5,-3 -10,-3 l -18,-1 c -1,2 -3,3 -4,4 -1,1 -2,2 -2,3 -1,1 -1,3 -1,3 -1,1 -1,3 -1,4 0,3 2,5 5,7 4,2 8,3 15,3 3,0 7,-1 9,-1 3,-1 5,-2 6,-3 2,-2 3,-3 4,-5 1,-1 1,-3 1,-5 z m 329,-132 c 0,2 -1,3 -1,4 0,2 0,2 0,3 -1,1 -1,1 -1,1 0,1 -1,1 -1,1 -1,0 -1,0 -2,-1 0,0 -1,0 -2,0 -1,-1 -2,-1 -3,-1 -1,0 -2,0 -4,0 -2,0 -3,0 -5,0 -1,1 -2,2 -3,3 -1,1 -1,3 -2,5 0,2 0,4 0,7 v 8 h 16 c 1,0 1,1 2,1 0,0 1,1 1,1 0,1 1,2 1,4 0,1 0,3 0,5 0,3 0,6 -1,7 -1,2 -2,3 -3,3 h -16 v 72 c 0,1 0,1 -1,2 0,0 -1,1 -2,1 -1,0 -2,1 -4,1 -1,0 -3,0 -6,0 -2,0 -4,0 -6,0 -2,0 -3,-1 -4,-1 -1,0 -2,-1 -2,-1 0,-1 0,-1 0,-2 v -72 h -12 c -1,0 -2,-1 -2,-3 -1,-1 -1,-4 -1,-7 0,-2 0,-4 0,-5 0,-2 0,-3 1,-4 0,0 0,-1 1,-1 0,0 1,-1 1,-1 h 12 v -7 c 0,-6 0,-12 1,-16 2,-5 3,-9 6,-12 3,-3 6,-5 10,-6 4,-2 9,-3 14,-3 3,0 5,0 7,1 3,0 4,1 6,1 1,1 2,1 3,2 0,0 0,1 1,2 0,0 0,2 0,3 0,1 1,3 1,5 z"
   id="path23"
   inkscape:connector-curvature="0"
   style="fill:#a9abae;fill-rule:nonzero" />
   <path
   class="fil6"
   d="m 2482,1403 c 0,2 0,4 0,6 0,2 0,3 -1,4 0,0 0,1 -1,1 0,1 -1,1 -1,1 -1,0 -1,0 -2,0 -1,-1 -2,-1 -2,-1 -1,-1 -2,-1 -3,-1 -1,0 -2,0 -3,0 -2,0 -3,0 -5,1 -1,0 -2,1 -4,2 -2,1 -3,3 -5,5 -1,2 -3,4 -5,7 v 56 c 0,1 0,1 -1,2 0,0 -1,1 -2,1 -1,0 -2,1 -3,1 -2,0 -4,0 -7,0 -2,0 -4,0 -6,0 -1,0 -3,-1 -4,-1 -1,0 -1,-1 -2,-1 0,-1 0,-1 0,-2 v -89 c 0,-1 0,-2 0,-2 1,-1 1,-1 2,-1 1,-1 2,-1 3,-1 2,0 4,0 6,0 2,0 3,0 5,0 1,0 2,0 3,1 1,0 1,0 2,1 0,0 0,1 0,2 v 11 c 3,-3 5,-6 7,-8 2,-3 4,-4 6,-6 2,-1 4,-2 5,-2 2,-1 4,-1 6,-1 1,0 2,0 3,0 1,0 2,0 3,1 1,0 2,0 3,1 1,0 1,0 2,0 0,1 0,1 0,2 1,0 1,1 1,1 0,1 0,2 0,3 0,2 0,4 0,6 z m 136,81 c 0,1 0,2 -1,3 0,0 -1,1 -3,1 -1,0 -3,0 -6,0 -3,0 -5,0 -7,0 -1,0 -2,-1 -3,-1 0,-1 0,-2 0,-3 v -7 c -4,4 -8,7 -13,9 -5,3 -10,4 -16,4 -4,0 -9,-1 -13,-2 -4,-1 -7,-3 -10,-6 -3,-2 -5,-5 -7,-9 -1,-3 -2,-7 -2,-12 0,-5 1,-10 3,-14 2,-4 5,-7 9,-9 4,-3 9,-5 15,-6 6,-1 13,-2 21,-2 h 9 v -5 c 0,-3 -1,-5 -1,-7 -1,-3 -2,-4 -3,-6 -1,-1 -3,-2 -5,-3 -2,-1 -5,-1 -8,-1 -5,0 -8,1 -12,2 -3,0 -6,2 -8,3 -3,1 -5,2 -7,3 -1,1 -3,1 -4,1 -1,0 -1,0 -2,-1 0,0 -1,-1 -1,-2 -1,0 -1,-1 -1,-3 0,-1 0,-2 0,-4 0,-2 0,-4 0,-5 1,-1 1,-2 2,-3 1,-1 3,-2 5,-3 2,-1 5,-3 8,-3 3,-2 7,-2 10,-3 4,-1 8,-1 12,-1 7,0 13,1 18,2 5,2 9,4 12,6 3,3 6,7 7,11 2,5 2,10 2,16 z m -24,-38 h -10 c -4,0 -8,0 -10,1 -3,1 -6,1 -7,3 -2,1 -4,2 -4,4 -1,2 -2,4 -2,6 0,4 2,7 4,9 2,2 6,3 10,3 3,0 7,-1 10,-3 2,-2 5,-4 9,-8 z m 241,38 c 0,1 0,1 -1,2 0,0 -1,1 -2,1 -1,0 -2,1 -4,1 -1,0 -3,0 -6,0 -2,0 -4,0 -6,0 -2,0 -3,-1 -4,-1 -1,0 -2,-1 -2,-1 0,-1 0,-1 0,-2 v -53 c 0,-3 -1,-6 -1,-8 -1,-3 -2,-5 -3,-6 -1,-2 -3,-4 -4,-5 -2,0 -4,-1 -7,-1 -3,0 -6,1 -9,4 -3,2 -6,5 -10,10 v 59 c 0,1 0,1 0,2 -1,0 -1,1 -2,1 -1,0 -3,1 -4,1 -2,0 -4,0 -6,0 -3,0 -5,0 -6,0 -2,0 -3,-1 -4,-1 -1,0 -2,-1 -2,-1 -1,-1 -1,-1 -1,-2 v -53 c 0,-3 0,-6 -1,-8 0,-3 -1,-5 -2,-6 -1,-2 -3,-4 -5,-5 -2,0 -4,-1 -6,-1 -3,0 -6,1 -9,4 -3,2 -7,5 -10,10 v 59 c 0,1 0,1 -1,2 0,0 -1,1 -2,1 -1,0 -2,1 -4,1 -1,0 -3,0 -6,0 -2,0 -4,0 -6,0 -1,0 -3,-1 -4,-1 -1,0 -1,-1 -2,-1 0,-1 0,-1 0,-2 v -89 c 0,-1 0,-2 0,-2 0,-1 1,-1 2,-1 1,-1 2,-1 3,-1 2,0 3,0 5,0 3,0 4,0 6,0 1,0 2,0 3,1 1,0 1,0 2,1 0,0 0,1 0,2 v 10 c 5,-5 10,-9 15,-12 5,-3 10,-4 15,-4 4,0 7,0 10,1 3,1 6,2 8,4 2,1 4,3 6,5 2,2 3,4 4,6 3,-3 6,-5 8,-7 3,-2 5,-4 8,-5 2,-1 5,-2 7,-3 3,-1 5,-1 8,-1 6,0 11,1 15,3 4,2 7,5 10,8 2,4 4,8 5,12 1,5 2,10 2,15 z m 156,-47 c 0,3 -1,5 -2,7 -1,1 -3,2 -6,2 h -54 c 0,4 0,7 1,10 1,3 3,6 5,8 2,2 4,4 7,5 3,1 7,2 11,2 5,0 9,-1 12,-1 3,-1 6,-2 9,-2 2,-1 4,-2 6,-2 1,-1 3,-1 4,-1 0,0 1,0 1,0 0,0 1,1 1,1 0,1 0,2 1,3 0,1 0,2 0,4 0,1 0,3 0,4 0,1 -1,1 -1,2 0,1 0,2 0,2 -1,1 -1,1 -1,2 -1,0 -2,1 -4,1 -2,1 -4,2 -7,3 -3,1 -7,1 -11,2 -3,0 -8,1 -12,1 -8,0 -15,-1 -21,-3 -6,-2 -11,-5 -15,-9 -4,-4 -7,-10 -9,-16 -2,-6 -3,-13 -3,-22 0,-8 1,-15 3,-21 2,-6 5,-12 9,-16 4,-5 9,-8 15,-10 5,-3 12,-4 19,-4 7,0 14,1 19,3 5,3 10,6 13,10 3,3 6,8 8,13 1,6 2,12 2,18 z m -24,-7 c 0,-7 -2,-13 -5,-17 -3,-4 -7,-6 -14,-6 -3,0 -6,1 -8,2 -3,1 -4,3 -6,5 -2,2 -3,4 -4,7 0,3 -1,6 -1,9 z m 230,-35 c 0,0 -1,1 -1,2 0,1 0,3 -1,5 l -24,81 c 0,1 0,2 -1,2 0,1 -1,2 -2,2 -2,1 -3,1 -5,1 -2,0 -5,0 -8,0 -3,0 -6,0 -8,0 -2,0 -4,-1 -5,-1 -1,0 -2,-1 -3,-2 0,0 0,-1 -1,-2 l -15,-55 v -1 1 l -14,55 c 0,1 -1,2 -1,2 -1,1 -2,2 -3,2 -1,1 -3,1 -5,1 -2,0 -4,0 -8,0 -3,0 -6,0 -8,0 -2,0 -3,-1 -5,-1 -1,0 -2,-1 -2,-2 -1,0 -1,-1 -1,-2 l -24,-81 c -1,-2 -1,-4 -1,-5 0,-1 0,-2 0,-2 0,-1 0,-2 0,-2 1,-1 1,-1 2,-1 1,-1 2,-1 4,-1 2,0 4,0 6,0 3,0 5,0 7,0 1,0 3,0 4,1 1,0 1,0 2,1 0,1 0,1 0,2 l 18,66 v 1 l 1,-1 16,-66 c 0,-1 1,-1 1,-2 1,-1 1,-1 2,-1 1,-1 2,-1 4,-1 1,0 3,0 6,0 2,0 4,0 6,0 1,0 3,0 4,1 1,0 1,0 1,1 1,0 1,1 1,2 l 18,66 1,1 v -1 l 17,-66 c 0,-1 0,-1 1,-2 0,-1 1,-1 2,-1 1,-1 2,-1 3,-1 2,0 4,0 6,0 3,0 5,0 7,0 1,0 2,0 3,1 1,0 2,0 2,1 0,0 1,1 1,2 z m 153,44 c 0,7 -1,14 -3,20 -2,7 -5,12 -9,17 -4,4 -9,8 -15,10 -6,3 -13,4 -22,4 -8,0 -14,-1 -20,-4 -6,-2 -11,-5 -15,-9 -4,-4 -7,-10 -9,-16 -1,-6 -2,-13 -2,-21 0,-7 1,-14 3,-21 2,-6 5,-11 9,-16 4,-4 9,-8 15,-10 6,-3 13,-4 22,-4 8,0 15,1 20,3 6,3 11,6 15,10 4,4 7,9 9,15 1,7 2,14 2,22 z m -25,1 c 0,-5 -1,-9 -2,-13 0,-3 -1,-7 -3,-9 -2,-3 -4,-5 -7,-7 -3,-1 -6,-2 -10,-2 -4,0 -7,1 -10,2 -3,1 -5,3 -7,6 -2,3 -3,6 -4,10 -1,3 -2,7 -2,12 0,5 1,9 2,12 0,4 1,7 3,10 2,3 4,5 7,6 3,2 6,3 10,3 4,0 7,-1 10,-2 3,-2 5,-4 7,-6 2,-3 3,-6 4,-10 1,-4 2,-8 2,-12 z m 152,-37 c 0,2 0,4 0,6 0,2 -1,3 -1,4 0,0 -1,1 -1,1 0,1 -1,1 -2,1 0,0 -1,0 -1,0 -1,-1 -2,-1 -3,-1 0,-1 -1,-1 -2,-1 -1,0 -3,0 -4,0 -1,0 -3,0 -4,1 -1,0 -3,1 -4,2 -2,1 -3,3 -5,5 -2,2 -3,4 -5,7 v 56 c 0,1 0,1 -1,2 0,0 -1,1 -2,1 -1,0 -2,1 -4,1 -1,0 -3,0 -6,0 -2,0 -4,0 -6,0 -2,0 -3,-1 -4,-1 -1,0 -1,-1 -2,-1 0,-1 0,-1 0,-2 v -89 c 0,-1 0,-2 0,-2 0,-1 1,-1 2,-1 1,-1 2,-1 3,-1 2,0 3,0 5,0 2,0 4,0 6,0 1,0 2,0 3,1 1,0 1,0 2,1 0,0 0,1 0,2 v 11 c 2,-3 5,-6 7,-8 2,-3 4,-4 6,-6 1,-1 3,-2 5,-2 2,-1 4,-1 6,-1 1,0 2,0 3,0 1,0 2,0 3,1 1,0 2,0 3,1 0,0 1,0 1,0 1,1 1,1 1,2 0,0 0,1 1,1 0,1 0,2 0,3 0,2 0,4 0,6 z m 148,81 c 0,1 -1,1 -1,2 0,0 -1,1 -2,1 -1,0 -2,1 -4,1 -2,0 -4,0 -6,0 -3,0 -5,0 -7,0 -2,0 -3,0 -4,-1 -1,0 -2,0 -3,-1 -1,-1 -1,-1 -2,-2 l -29,-47 v 47 c 0,1 0,1 -1,2 0,0 -1,1 -2,1 -1,0 -2,1 -4,1 -1,0 -3,0 -6,0 -2,0 -4,0 -6,0 -2,0 -3,-1 -4,-1 -1,0 -1,-1 -2,-1 0,-1 0,-1 0,-2 v -132 c 0,0 0,-1 0,-1 1,-1 1,-1 2,-2 1,0 2,0 4,-1 2,0 4,0 6,0 3,0 5,0 6,0 2,1 3,1 4,1 1,1 2,1 2,2 1,0 1,1 1,1 v 79 l 26,-36 c 1,-1 1,-1 2,-2 1,0 2,-1 3,-1 1,-1 2,-1 4,-1 1,0 3,0 6,0 2,0 5,0 6,0 2,0 3,0 4,1 1,0 2,0 2,1 1,0 1,1 1,2 0,1 0,2 -1,3 0,1 -1,2 -2,4 l -26,29 30,47 c 1,1 2,3 2,4 0,1 1,1 1,2 z"
   id="path25"
   inkscape:connector-curvature="0"
   style="fill:#a9abae;fill-rule:nonzero" />
  </g>
 </g>
</svg>